Coordinates
version=1
nRows=26
nColumns=30
inDegrees=yes

Units are S.I. units (second, meters, Newtons, ...)
Angles are in degrees.

endheader
time	floatyaw	floatroll	floatpitch	floatx	floaty	floatz	pro_sup_l	deviation_l	flexion_l	cmc_flexion_l	cmc_abduction_l	mp_flexion_l	ip_flexion_l	2mcp_flexion_l	2mcp_abduction_l	2pm_flexion_l	2md_flexion_l	3mcp_flexion_l	3mcp_abduction_l	3pm_flexion_l	3md_flexion_l	4mcp_flexion_l	4mcp_abduction_l	4pm_flexion_l	4md_flexion_l	5mcp_flexion_l	5mcp_abduction_l	5pm_flexion_l	5md_flexion_l
0.005000	-1.847142	-2.057261	94.906514	0.177100	-0.288211	0.195512	119.272471	21.444868	29.721578	8.827067	31.544676	-19.832786	-39.427572	47.744354	10.867988	46.650423	54.085028	54.052861	7.042809	51.976058	61.318592	52.193568	-6.787596	72.726584	58.752176	27.361533	-13.128133	75.438301	58.810461
0.015000	-1.847142	-2.057261	94.906514	0.176745	-0.287290	0.195290	119.327068	21.242161	29.059873	10.312154	32.495404	-20.176839	-43.136616	48.127769	11.074533	47.305226	55.192233	54.277073	7.030212	53.089139	62.407153	52.286921	-6.835359	73.878272	59.717447	27.298844	-13.150167	76.524018	59.444991
0.025000	-1.847142	-2.057261	94.906514	0.176357	-0.286372	0.194988	119.310869	20.991056	28.454067	11.581930	33.296647	-20.404163	-46.473138	48.476172	11.268741	47.895471	56.175060	54.481674	7.019128	54.131717	63.376084	52.398872	-6.872493	74.987581	60.598746	27.266290	-13.163002	77.576939	60.034194
0.035000	-1.847142	-2.057261	94.906514	0.175939	-0.285512	0.194610	119.214387	20.693660	27.946232	12.593164	33.904576	-20.530841	-49.264494	48.766025	11.435625	48.398676	57.012291	54.648244	7.010197	55.070235	64.225162	52.505984	-6.899369	76.021346	61.396690	27.241488	-13.169539	78.556215	60.577474
0.045000	-1.847142	-2.057261	94.906514	0.175491	-0.284762	0.194169	119.042540	20.357496	27.558687	13.341469	34.321758	-20.579623	-51.422182	48.989101	11.566810	48.792785	57.713579	54.774323	7.005515	55.871284	64.979348	52.594889	-6.918155	76.947162	62.125601	27.206280	-13.175858	79.428682	61.085197
0.055000	-1.847142	-2.057261	94.906514	0.175014	-0.284165	0.193694	118.812853	19.993716	27.293016	13.851482	34.586545	-20.571465	-52.947585	49.150502	11.659994	49.058042	58.303778	54.870634	7.007715	56.504362	65.674590	52.664149	-6.931592	77.734888	62.801102	27.152526	-13.187752	80.167009	61.566981
0.065000	-1.847142	-2.057261	94.906514	0.174514	-0.283749	0.193228	118.552850	19.616335	27.132846	14.164298	34.752188	-20.522331	-53.915820	49.261461	11.717557	49.187308	58.802465	54.951694	7.018435	56.952714	66.339037	52.718899	-6.942062	78.363817	63.428917	27.081135	-13.207708	80.751635	62.020996
0.075000	-1.847142	-2.057261	94.906514	0.174006	-0.283509	0.192823	118.296456	19.242206	27.048698	14.326877	34.866371	-20.444493	-54.446742	49.332497	11.744993	49.196510	59.211305	55.026411	7.037055	57.225031	66.980318	52.762888	-6.951138	78.832183	64.001070	26.997095	-13.233667	81.177446	62.431152
0.085000	-1.847142	-2.057261	94.906514	0.173509	-0.283413	0.192527	118.078032	18.890030	27.004785	14.385070	34.960129	-20.348897	-54.674256	49.371461	11.749359	49.124543	59.516373	55.094874	7.060554	57.358007	67.585495	52.794098	-6.959528	79.161699	64.500701	26.905269	-13.260163	81.459827	62.773995
0.095000	-1.847142	-2.057261	94.906514	0.173043	-0.283412	0.192369	117.923874	18.577178	26.967734	14.379757	35.048092	-20.246072	-54.722324	49.386386	11.737917	49.020133	59.702417	55.152676	7.084636	57.405680	68.132446	52.807181	-6.967252	79.392238	64.911737	26.809793	-13.281251	81.633732	63.030981
0.105000	-1.847142	-2.057261	94.906514	0.172632	-0.283451	0.192350	117.844077	18.315264	26.915317	14.344692	35.135241	-20.145231	-54.690902	49.388899	11.717183	48.924077	59.768605	55.198621	7.105458	57.420796	68.605190	52.800470	-6.973949	79.568363	65.227771	26.716187	-13.293607	81.744384	63.198541
0.115000	-1.847142	-2.057261	94.906514	0.172294	-0.283493	0.192440	117.829252	18.106925	26.841585	14.304775	35.223416	-20.052484	-54.650258	49.393951	11.692432	48.857883	59.735649	55.239541	7.120988	57.438423	69.004514	52.781484	-6.979213	79.724834	65.456105	26.632912	-13.297933	81.834132	63.290220
0.125000	-1.847142	-2.057261	94.906514	0.172041	-0.283519	0.192590	117.854632	17.945641	26.755592	14.274518	35.313818	-19.969493	-54.640217	49.415385	11.667439	48.823167	59.641174	55.288500	7.131409	57.469927	69.348893	52.765721	-6.982891	79.878603	65.616237	26.569619	-13.297894	81.931753	63.330972
0.135000	-1.847142	-2.057261	94.906514	0.171873	-0.283531	0.192749	117.889887	17.818476	26.674181	14.257838	35.406025	-19.893950	-54.672230	49.460312	11.644297	48.808464	59.527667	55.357466	7.138560	57.508811	69.666181	52.768709	-6.985258	80.030336	65.734450	26.532301	-13.297404	82.048044	63.348419
0.145000	-1.847142	-2.057261	94.906514	0.171778	-0.283534	0.192875	117.909884	17.710247	26.612722	14.250387	35.496405	-19.822281	-54.734521	49.525809	11.623430	48.798261	59.429915	55.449346	7.144834	57.543377	69.981048	52.796565	-6.987005	80.172753	65.836857	26.518410	-13.298182	82.178094	63.365975
0.155000	-1.847142	-2.057261	94.906514	0.171732	-0.283538	0.192950	117.901628	17.607444	26.578588	14.244107	35.578353	-19.753224	-54.801093	49.599749	11.604040	48.780999	59.366652	55.554750	7.152102	57.568165	70.304899	52.841618	-6.989062	80.299790	65.943093	26.515636	-13.299123	82.308224	63.399403
0.165000	-1.847142	-2.057261	94.906514	0.171707	-0.283544	0.192980	117.865306	17.500971	26.569889	14.232160	35.644971	-19.689733	-54.843838	49.665497	11.584947	48.754105	59.338187	55.655834	7.161103	57.587934	70.633441	52.886280	-6.992290	80.411324	66.062654	26.506158	-13.297703	82.424300	63.455791
0.175000	-1.847142	-2.057261	94.906514	0.171682	-0.283552	0.192982	117.810516	17.387486	26.578522	14.212143	35.692877	-19.637547	-54.844602	49.708682	11.565489	48.724329	59.330035	55.735326	7.171497	57.613145	70.952802	52.912963	-6.997162	80.511885	66.195100	26.475016	-13.292269	82.517971	63.533698
0.185000	-1.847142	-2.057261	94.906514	0.171643	-0.283557	0.192977	117.750460	17.269336	26.594614	14.186557	35.725031	-19.601225	-54.802799	49.723355	11.545978	48.703107	59.321060	55.785683	7.182400	57.651379	71.249990	52.914060	-7.003551	80.605869	66.333592	26.418463	-13.283712	82.588831	63.624408
0.195000	-1.847142	-2.057261	94.906514	0.171592	-0.283557	0.192981	117.696672	17.153015	26.609931	14.160814	35.750829	-19.580420	-54.735204	49.714727	11.527483	48.699597	59.292766	55.813101	7.193011	57.701506	71.520630	52.896103	-7.010771	80.693876	66.469326	26.347271	-13.275543	82.642865	63.714796
0.205000	-1.847142	-2.057261	94.906514	0.171539	-0.283551	0.193001	117.655648	17.046341	26.619434	14.139973	35.782990	-19.568881	-54.667872	49.696969	11.511081	48.715575	59.235678	55.834031	7.202976	57.754701	71.769270	52.875969	-7.017847	80.773084	66.594465	26.282423	-13.272382	82.689066	63.791596
0.215000	-1.847142	-2.057261	94.906514	0.171494	-0.283541	0.193032	117.627715	16.955194	26.621363	14.125672	35.832358	-19.556555	-54.624007	49.686942	11.497018	48.744901	59.150635	55.866603	7.212412	57.800599	72.003880	52.871853	-7.023923	80.840739	66.703257	26.245268	-13.277659	82.735979	63.845768
0.225000	-1.847142	-2.057261	94.906514	0.171466	-0.283530	0.193065	117.607882	16.881046	26.616487	14.114684	35.903113	-19.533365	-54.613595	49.696977	11.484292	48.777044	59.045814	55.922290	7.221719	57.833177	72.230458	52.894493	-7.028580	80.897427	66.792629	26.247738	-13.291748	82.789185	63.875319
0.235000	-1.847142	-2.057261	94.906514	0.171451	-0.283520	0.193089	117.588140	16.820272	26.607051	14.099940	35.990850	-19.492952	-54.629359	49.730237	11.470868	48.801875	58.932174	56.002112	7.231375	57.852493	72.451955	52.943099	-7.031940	80.947809	66.862939	26.287604	-13.311574	82.850485	63.885452
0.245000	-1.847142	-2.057261	94.906514	0.171443	-0.283512	0.193097	117.560495	16.765463	26.595737	14.073637	36.084484	-19.434987	-54.650299	49.780612	11.454413	48.812794	58.819881	56.098210	7.241817	57.862411	72.670844	53.007216	-7.034549	80.998820	66.918176	26.350290	-13.331990	82.919049	63.886061
0.255000	-1.847142	-2.057261	94.906514	0.171428	-0.283502	0.193084	117.519878	16.708187	26.584837	14.030730	36.170788	-19.364882	-54.650896	49.836719	11.433188	48.807041	58.716726	56.198746	7.253357	57.866891	72.891762	53.072687	-7.037089	81.056622	66.964894	26.415516	-13.348194	82.993454	63.887887
